solid cylinder

facet normal 0.99802672863 0.0627903491259 0.0
outer loop
vertex 0.496057361364 0.0626666173339 1.0
vertex 0.5 -1.22464685259e-16 1.0
vertex 0.5 -1.22464685259e-16 0.0
endloop
endfacet
facet normal 0.99802672863 0.0627903491259 0.0
outer loop
vertex 0.496057361364 0.0626666173339 1.0
vertex 0.5 -1.22464685259e-16 0.0
vertex 0.496057361364 0.0626666173339 0.0
endloop
endfacet
facet normal 0.982287228107 0.18738143146 0.0
outer loop
vertex 0.4842915833 0.124344944954 1.0
vertex 0.496057361364 0.0626666173339 1.0
vertex 0.496057361364 0.0626666173339 0.0
endloop
endfacet
facet normal 0.982287228107 0.18738143146 0.0
outer loop
vertex 0.4842915833 0.124344944954 1.0
vertex 0.496057361364 0.0626666173339 0.0
vertex 0.4842915833 0.124344944954 0.0
endloop
endfacet
facet normal 0.951056540012 0.309017032385 0.0
outer loop
vertex 0.464888244867 0.18406227231 1.0
vertex 0.4842915833 0.124344944954 1.0
vertex 0.4842915833 0.124344944954 0.0
endloop
endfacet
facet normal 0.951056540012 0.309017032385 0.0
outer loop
vertex 0.464888244867 0.18406227231 1.0
vertex 0.4842915833 0.124344944954 0.0
vertex 0.464888244867 0.18406227231 0.0
endloop
endfacet
facet normal 0.904826998711 0.425779491663 0.0
outer loop
vertex 0.438153326511 0.240876838565 1.0
vertex 0.464888244867 0.18406227231 1.0
vertex 0.464888244867 0.18406227231 0.0
endloop
endfacet
facet normal 0.904826998711 0.425779491663 0.0
outer loop
vertex 0.438153326511 0.240876838565 1.0
vertex 0.464888244867 0.18406227231 0.0
vertex 0.438153326511 0.240876838565 0.0
endloop
endfacet
facet normal 0.844328045845 0.53582662344 0.0
outer loop
vertex 0.404508501291 0.293892621994 1.0
vertex 0.438153326511 0.240876838565 1.0
vertex 0.438153326511 0.240876838565 0.0
endloop
endfacet
facet normal 0.844328045845 0.53582662344 0.0
outer loop
vertex 0.404508501291 0.293892621994 1.0
vertex 0.438153326511 0.240876838565 0.0
vertex 0.404508501291 0.293892621994 0.0
endloop
endfacet
facet normal 0.770513296127 0.637423932552 0.0
outer loop
vertex 0.404508501291 0.293892621994 1.0
vertex 0.404508501291 0.293892621994 0.0
vertex 0.36448431015 0.342273563147 0.0
endloop
endfacet
facet normal 0.770513296127 0.637423932552 0.0
outer loop
vertex 0.36448431015 0.342273563147 1.0
vertex 0.404508501291 0.293892621994 1.0
vertex 0.36448431015 0.342273563147 0.0
endloop
endfacet
facet normal 0.684547066689 0.72896873951 0.0
outer loop
vertex 0.318711996078 0.385256618261 1.0
vertex 0.36448431015 0.342273563147 1.0
vertex 0.36448431015 0.342273563147 0.0
endloop
endfacet
facet normal 0.684547066689 0.72896873951 0.0
outer loop
vertex 0.318711996078 0.385256618261 1.0
vertex 0.36448431015 0.342273563147 0.0
vertex 0.318711996078 0.385256618261 0.0
endloop
endfacet
facet normal 0.587785303593 0.809016942978 0.0
outer loop
vertex 0.318711996078 0.385256618261 1.0
vertex 0.318711996078 0.385256618261 0.0
vertex 0.267913401127 0.422163963318 0.0
endloop
endfacet
facet normal 0.587785303593 0.809016942978 0.0
outer loop
vertex 0.267913401127 0.422163963318 1.0
vertex 0.318711996078 0.385256618261 1.0
vertex 0.267913401127 0.422163963318 0.0
endloop
endfacet
facet normal 0.481753647327 0.876306712627 0.0
outer loop
vertex 0.267913401127 0.422163963318 1.0
vertex 0.267913401127 0.422163963318 0.0
vertex 0.212889641523 0.452413529158 0.0
endloop
endfacet
facet normal 0.481753647327 0.876306712627 0.0
outer loop
vertex 0.212889641523 0.452413529158 1.0
vertex 0.267913401127 0.422163963318 1.0
vertex 0.212889641523 0.452413529158 0.0
endloop
endfacet
facet normal 0.368124723434 0.92977643013 0.0
outer loop
vertex 0.154508501291 0.475528270006 1.0
vertex 0.212889641523 0.452413529158 1.0
vertex 0.212889641523 0.452413529158 0.0
endloop
endfacet
facet normal 0.368124723434 0.92977643013 0.0
outer loop
vertex 0.154508501291 0.475528270006 1.0
vertex 0.212889641523 0.452413529158 0.0
vertex 0.154508501291 0.475528270006 0.0
endloop
endfacet
facet normal 0.248689517379 0.968583226204 0.0
outer loop
vertex 0.154508501291 0.475528270006 1.0
vertex 0.154508501291 0.475528270006 0.0
vertex 0.0936906561255 0.491143614054 0.0
endloop
endfacet
facet normal 0.248689517379 0.968583226204 0.0
outer loop
vertex 0.0936906561255 0.491143614054 1.0
vertex 0.154508501291 0.475528270006 1.0
vertex 0.0936906561255 0.491143614054 0.0
endloop
endfacet
facet normal 0.125333413482 0.992114663124 0.0
outer loop
vertex 0.0936906561255 0.491143614054 1.0
vertex 0.0936906561255 0.491143614054 0.0
vertex 0.0313952602446 0.499013364315 0.0
endloop
endfacet
facet normal 0.125333413482 0.992114663124 0.0
outer loop
vertex 0.0313952602446 0.499013364315 1.0
vertex 0.0936906561255 0.491143614054 1.0
vertex 0.0313952602446 0.499013364315 0.0
endloop
endfacet
facet normal -0.0 1.0 0.0
outer loop
vertex -0.0313952602446 0.499013364315 1.0
vertex 0.0313952602446 0.499013364315 1.0
vertex 0.0313952602446 0.499013364315 0.0
endloop
endfacet
facet normal 0.0 1.0 0.0
outer loop
vertex -0.0313952602446 0.499013364315 1.0
vertex 0.0313952602446 0.499013364315 0.0
vertex -0.0313952602446 0.499013364315 0.0
endloop
endfacet
facet normal -0.125333413482 0.992114663124 0.0
outer loop
vertex -0.0936906561255 0.491143614054 1.0
vertex -0.0313952602446 0.499013364315 1.0
vertex -0.0313952602446 0.499013364315 0.0
endloop
endfacet
facet normal -0.125333413482 0.992114663124 0.0
outer loop
vertex -0.0936906561255 0.491143614054 1.0
vertex -0.0313952602446 0.499013364315 0.0
vertex -0.0936906561255 0.491143614054 0.0
endloop
endfacet
facet normal -0.248689517379 0.968583226204 0.0
outer loop
vertex -0.0936906561255 0.491143614054 1.0
vertex -0.0936906561255 0.491143614054 0.0
vertex -0.154508501291 0.475528270006 0.0
endloop
endfacet
facet normal -0.248689517379 0.968583226204 0.0
outer loop
vertex -0.154508501291 0.475528270006 1.0
vertex -0.0936906561255 0.491143614054 1.0
vertex -0.154508501291 0.475528270006 0.0
endloop
endfacet
facet normal -0.368124723434 0.92977643013 0.0
outer loop
vertex -0.212889641523 0.452413529158 1.0
vertex -0.154508501291 0.475528270006 0.0
vertex -0.212889641523 0.452413529158 0.0
endloop
endfacet
facet normal -0.481753647327 0.876306712627 0.0
outer loop
vertex -0.212889641523 0.452413529158 1.0
vertex -0.212889641523 0.452413529158 0.0
vertex -0.267913401127 0.422163963318 0.0
endloop
endfacet
facet normal -0.368124723434 0.92977643013 0.0
outer loop
vertex -0.212889641523 0.452413529158 1.0
vertex -0.154508501291 0.475528270006 1.0
vertex -0.154508501291 0.475528270006 0.0
endloop
endfacet
facet normal -0.587785303593 0.809016942978 0.0
outer loop
vertex -0.267913401127 0.422163963318 1.0
vertex -0.267913401127 0.422163963318 0.0
vertex -0.318711996078 0.385256618261 0.0
endloop
endfacet
facet normal -0.481753647327 0.876306712627 0.0
outer loop
vertex -0.267913401127 0.422163963318 1.0
vertex -0.212889641523 0.452413529158 1.0
vertex -0.267913401127 0.422163963318 0.0
endloop
endfacet
facet normal -0.587785303593 0.809016942978 0.0
outer loop
vertex -0.318711996078 0.385256618261 1.0
vertex -0.267913401127 0.422163963318 1.0
vertex -0.318711996078 0.385256618261 0.0
endloop
endfacet
facet normal -0.684547066689 0.72896873951 0.0
outer loop
vertex -0.36448431015 0.342273563147 1.0
vertex -0.318711996078 0.385256618261 0.0
vertex -0.36448431015 0.342273563147 0.0
endloop
endfacet
facet normal -0.770513296127 0.637423932552 0.0
outer loop
vertex -0.36448431015 0.342273563147 1.0
vertex -0.36448431015 0.342273563147 0.0
vertex -0.404508501291 0.293892621994 0.0
endloop
endfacet
facet normal -0.684547066689 0.72896873951 0.0
outer loop
vertex -0.36448431015 0.342273563147 1.0
vertex -0.318711996078 0.385256618261 1.0
vertex -0.318711996078 0.385256618261 0.0
endloop
endfacet
facet normal -0.770513296127 0.637423932552 0.0
outer loop
vertex -0.404508501291 0.293892621994 1.0
vertex -0.36448431015 0.342273563147 1.0
vertex -0.404508501291 0.293892621994 0.0
endloop
endfacet
facet normal -0.844328045845 0.53582662344 0.0
outer loop
vertex -0.438153326511 0.240876838565 1.0
vertex -0.404508501291 0.293892621994 0.0
vertex -0.438153326511 0.240876838565 0.0
endloop
endfacet
facet normal -0.904826998711 0.425779491663 0.0
outer loop
vertex -0.438153326511 0.240876838565 1.0
vertex -0.438153326511 0.240876838565 0.0
vertex -0.464888244867 0.18406227231 0.0
endloop
endfacet
facet normal -0.844328045845 0.53582662344 0.0
outer loop
vertex -0.438153326511 0.240876838565 1.0
vertex -0.404508501291 0.293892621994 1.0
vertex -0.404508501291 0.293892621994 0.0
endloop
endfacet
facet normal -0.904826998711 0.425779491663 0.0
outer loop
vertex -0.464888244867 0.18406227231 1.0
vertex -0.438153326511 0.240876838565 1.0
vertex -0.464888244867 0.18406227231 0.0
endloop
endfacet
facet normal -0.951056540012 0.309017032385 0.0
outer loop
vertex -0.4842915833 0.124344944954 1.0
vertex -0.464888244867 0.18406227231 0.0
vertex -0.4842915833 0.124344944954 0.0
endloop
endfacet
facet normal -0.951056540012 0.309017032385 0.0
outer loop
vertex -0.4842915833 0.124344944954 1.0
vertex -0.464888244867 0.18406227231 1.0
vertex -0.464888244867 0.18406227231 0.0
endloop
endfacet
facet normal -0.982287228107 0.18738143146 0.0
outer loop
vertex -0.496057361364 0.0626666173339 1.0
vertex -0.4842915833 0.124344944954 0.0
vertex -0.496057361364 0.0626666173339 0.0
endloop
endfacet
facet normal -0.99802672863 0.0627903491259 0.0
outer loop
vertex -0.496057361364 0.0626666173339 1.0
vertex -0.496057361364 0.0626666173339 0.0
vertex -0.5 -6.04901485381e-16 0.0
endloop
endfacet
facet normal -0.982287228107 0.18738143146 0.0
outer loop
vertex -0.496057361364 0.0626666173339 1.0
vertex -0.4842915833 0.124344944954 1.0
vertex -0.4842915833 0.124344944954 0.0
endloop
endfacet
facet normal -0.99802672863 0.0627903491259 0.0
outer loop
vertex -0.5 -6.04901485381e-16 1.0
vertex -0.496057361364 0.0626666173339 1.0
vertex -0.5 -6.04901485381e-16 0.0
endloop
endfacet
facet normal -0.99802672863 -0.0627903491259 -0.0
outer loop
vertex -0.5 -6.04901485381e-16 1.0
vertex -0.5 -6.04901485381e-16 0.0
vertex -0.496057361364 -0.0626666173339 0.0
endloop
endfacet
facet normal -0.99802672863 -0.0627903491259 -0.0
outer loop
vertex -0.496057361364 -0.0626666173339 1.0
vertex -0.5 -6.04901485381e-16 1.0
vertex -0.496057361364 -0.0626666173339 0.0
endloop
endfacet
facet normal -0.982287228107 -0.18738143146 0.0
outer loop
vertex -0.4842915833 -0.124344944954 1.0
vertex -0.496057361364 -0.0626666173339 1.0
vertex -0.496057361364 -0.0626666173339 0.0
endloop
endfacet
facet normal -0.982287228107 -0.18738143146 -0.0
outer loop
vertex -0.4842915833 -0.124344944954 1.0
vertex -0.496057361364 -0.0626666173339 0.0
vertex -0.4842915833 -0.124344944954 0.0
endloop
endfacet
facet normal -0.951056540012 -0.309017032385 0.0
outer loop
vertex -0.464888244867 -0.18406227231 1.0
vertex -0.4842915833 -0.124344944954 1.0
vertex -0.4842915833 -0.124344944954 0.0
endloop
endfacet
facet normal -0.951056540012 -0.309017032385 -0.0
outer loop
vertex -0.464888244867 -0.18406227231 1.0
vertex -0.4842915833 -0.124344944954 0.0
vertex -0.464888244867 -0.18406227231 0.0
endloop
endfacet
facet normal -0.904826998711 -0.425779491663 0.0
outer loop
vertex -0.438153326511 -0.240876838565 1.0
vertex -0.464888244867 -0.18406227231 1.0
vertex -0.464888244867 -0.18406227231 0.0
endloop
endfacet
facet normal -0.904826998711 -0.425779491663 -0.0
outer loop
vertex -0.438153326511 -0.240876838565 1.0
vertex -0.464888244867 -0.18406227231 0.0
vertex -0.438153326511 -0.240876838565 0.0
endloop
endfacet
facet normal -0.844328045845 -0.53582662344 0.0
outer loop
vertex -0.404508501291 -0.293892621994 1.0
vertex -0.438153326511 -0.240876838565 1.0
vertex -0.438153326511 -0.240876838565 0.0
endloop
endfacet
facet normal -0.844328045845 -0.53582662344 -0.0
outer loop
vertex -0.404508501291 -0.293892621994 1.0
vertex -0.438153326511 -0.240876838565 0.0
vertex -0.404508501291 -0.293892621994 0.0
endloop
endfacet
facet normal -0.770513296127 -0.637423932552 0.0
outer loop
vertex -0.36448431015 -0.342273563147 1.0
vertex -0.404508501291 -0.293892621994 1.0
vertex -0.404508501291 -0.293892621994 0.0
endloop
endfacet
facet normal -0.770513296127 -0.637423932552 -0.0
outer loop
vertex -0.36448431015 -0.342273563147 1.0
vertex -0.404508501291 -0.293892621994 0.0
vertex -0.36448431015 -0.342273563147 0.0
endloop
endfacet
facet normal -0.684547066689 -0.72896873951 0.0
outer loop
vertex -0.318711996078 -0.385256618261 1.0
vertex -0.36448431015 -0.342273563147 1.0
vertex -0.36448431015 -0.342273563147 0.0
endloop
endfacet
facet normal -0.684547066689 -0.72896873951 -0.0
outer loop
vertex -0.318711996078 -0.385256618261 1.0
vertex -0.36448431015 -0.342273563147 0.0
vertex -0.318711996078 -0.385256618261 0.0
endloop
endfacet
facet normal -0.587785303593 -0.809016942978 0.0
outer loop
vertex -0.267913401127 -0.422163963318 1.0
vertex -0.318711996078 -0.385256618261 1.0
vertex -0.318711996078 -0.385256618261 0.0
endloop
endfacet
facet normal -0.587785303593 -0.809016942978 -0.0
outer loop
vertex -0.267913401127 -0.422163963318 1.0
vertex -0.318711996078 -0.385256618261 0.0
vertex -0.267913401127 -0.422163963318 0.0
endloop
endfacet
facet normal -0.481753647327 -0.876306712627 -0.0
outer loop
vertex -0.267913401127 -0.422163963318 1.0
vertex -0.267913401127 -0.422163963318 0.0
vertex -0.212889641523 -0.452413529158 0.0
endloop
endfacet
facet normal -0.481753647327 -0.876306712627 -0.0
outer loop
vertex -0.212889641523 -0.452413529158 1.0
vertex -0.267913401127 -0.422163963318 1.0
vertex -0.212889641523 -0.452413529158 0.0
endloop
endfacet
facet normal -0.368124723434 -0.92977643013 0.0
outer loop
vertex -0.154508501291 -0.475528270006 1.0
vertex -0.212889641523 -0.452413529158 1.0
vertex -0.212889641523 -0.452413529158 0.0
endloop
endfacet
facet normal -0.368124723434 -0.92977643013 -0.0
outer loop
vertex -0.154508501291 -0.475528270006 1.0
vertex -0.212889641523 -0.452413529158 0.0
vertex -0.154508501291 -0.475528270006 0.0
endloop
endfacet
facet normal -0.248689517379 -0.968583226204 0.0
outer loop
vertex -0.0936906561255 -0.491143614054 1.0
vertex -0.154508501291 -0.475528270006 1.0
vertex -0.154508501291 -0.475528270006 0.0
endloop
endfacet
facet normal -0.248689517379 -0.968583226204 -0.0
outer loop
vertex -0.0936906561255 -0.491143614054 1.0
vertex -0.154508501291 -0.475528270006 0.0
vertex -0.0936906561255 -0.491143614054 0.0
endloop
endfacet
facet normal -0.125333413482 -0.992114663124 0.0
outer loop
vertex -0.0313952602446 -0.499013364315 1.0
vertex -0.0936906561255 -0.491143614054 1.0
vertex -0.0936906561255 -0.491143614054 0.0
endloop
endfacet
facet normal -0.125333413482 -0.992114663124 -0.0
outer loop
vertex -0.0313952602446 -0.499013364315 1.0
vertex -0.0936906561255 -0.491143614054 0.0
vertex -0.0313952602446 -0.499013364315 0.0
endloop
endfacet
facet normal -0.0 -1.0 0.0
outer loop
vertex 0.0313952602446 -0.499013364315 1.0
vertex -0.0313952602446 -0.499013364315 1.0
vertex -0.0313952602446 -0.499013364315 0.0
endloop
endfacet
facet normal 0.0 -1.0 -0.0
outer loop
vertex 0.0313952602446 -0.499013364315 1.0
vertex -0.0313952602446 -0.499013364315 0.0
vertex 0.0313952602446 -0.499013364315 0.0
endloop
endfacet
facet normal 0.125333413482 -0.992114663124 0.0
outer loop
vertex 0.0936906561255 -0.491143614054 1.0
vertex 0.0313952602446 -0.499013364315 1.0
vertex 0.0313952602446 -0.499013364315 0.0
endloop
endfacet
facet normal 0.125333413482 -0.992114663124 0.0
outer loop
vertex 0.0936906561255 -0.491143614054 1.0
vertex 0.0313952602446 -0.499013364315 0.0
vertex 0.0936906561255 -0.491143614054 0.0
endloop
endfacet
facet normal 0.248689517379 -0.968583226204 0.0
outer loop
vertex 0.0936906561255 -0.491143614054 1.0
vertex 0.0936906561255 -0.491143614054 0.0
vertex 0.154508501291 -0.475528270006 0.0
endloop
endfacet
facet normal 0.248689517379 -0.968583226204 0.0
outer loop
vertex 0.154508501291 -0.475528270006 1.0
vertex 0.0936906561255 -0.491143614054 1.0
vertex 0.154508501291 -0.475528270006 0.0
endloop
endfacet
facet normal 0.368124723434 -0.92977643013 0.0
outer loop
vertex 0.212889641523 -0.452413529158 1.0
vertex 0.154508501291 -0.475528270006 1.0
vertex 0.154508501291 -0.475528270006 0.0
endloop
endfacet
facet normal 0.368124723434 -0.92977643013 0.0
outer loop
vertex 0.212889641523 -0.452413529158 1.0
vertex 0.154508501291 -0.475528270006 0.0
vertex 0.212889641523 -0.452413529158 0.0
endloop
endfacet
facet normal 0.481753647327 -0.876306712627 0.0
outer loop
vertex 0.212889641523 -0.452413529158 1.0
vertex 0.212889641523 -0.452413529158 0.0
vertex 0.267913401127 -0.422163963318 0.0
endloop
endfacet
facet normal 0.481753647327 -0.876306712627 0.0
outer loop
vertex 0.267913401127 -0.422163963318 1.0
vertex 0.212889641523 -0.452413529158 1.0
vertex 0.267913401127 -0.422163963318 0.0
endloop
endfacet
facet normal 0.587785303593 -0.809016942978 0.0
outer loop
vertex 0.318711996078 -0.385256618261 1.0
vertex 0.267913401127 -0.422163963318 1.0
vertex 0.267913401127 -0.422163963318 0.0
endloop
endfacet
facet normal 0.587785303593 -0.809016942978 0.0
outer loop
vertex 0.318711996078 -0.385256618261 1.0
vertex 0.267913401127 -0.422163963318 0.0
vertex 0.318711996078 -0.385256618261 0.0
endloop
endfacet
facet normal 0.684547066689 -0.72896873951 0.0
outer loop
vertex 0.36448431015 -0.342273563147 1.0
vertex 0.318711996078 -0.385256618261 1.0
vertex 0.318711996078 -0.385256618261 0.0
endloop
endfacet
facet normal 0.684547066689 -0.72896873951 0.0
outer loop
vertex 0.36448431015 -0.342273563147 1.0
vertex 0.318711996078 -0.385256618261 0.0
vertex 0.36448431015 -0.342273563147 0.0
endloop
endfacet
facet normal 0.770513296127 -0.637423932552 0.0
outer loop
vertex 0.36448431015 -0.342273563147 1.0
vertex 0.36448431015 -0.342273563147 0.0
vertex 0.404508501291 -0.293892621994 0.0
endloop
endfacet
facet normal 0.770513296127 -0.637423932552 0.0
outer loop
vertex 0.404508501291 -0.293892621994 1.0
vertex 0.36448431015 -0.342273563147 1.0
vertex 0.404508501291 -0.293892621994 0.0
endloop
endfacet
facet normal 0.844328045845 -0.53582662344 0.0
outer loop
vertex 0.438153326511 -0.240876838565 1.0
vertex 0.404508501291 -0.293892621994 1.0
vertex 0.404508501291 -0.293892621994 0.0
endloop
endfacet
facet normal 0.844328045845 -0.53582662344 0.0
outer loop
vertex 0.438153326511 -0.240876838565 1.0
vertex 0.404508501291 -0.293892621994 0.0
vertex 0.438153326511 -0.240876838565 0.0
endloop
endfacet
facet normal 0.904826998711 -0.425779491663 0.0
outer loop
vertex 0.464888244867 -0.18406227231 1.0
vertex 0.438153326511 -0.240876838565 1.0
vertex 0.438153326511 -0.240876838565 0.0
endloop
endfacet
facet normal 0.904826998711 -0.425779491663 0.0
outer loop
vertex 0.464888244867 -0.18406227231 1.0
vertex 0.438153326511 -0.240876838565 0.0
vertex 0.464888244867 -0.18406227231 0.0
endloop
endfacet
facet normal 0.951056540012 -0.309017032385 0.0
outer loop
vertex 0.464888244867 -0.18406227231 1.0
vertex 0.464888244867 -0.18406227231 0.0
vertex 0.4842915833 -0.124344944954 0.0
endloop
endfacet
facet normal 0.951056540012 -0.309017032385 0.0
outer loop
vertex 0.4842915833 -0.124344944954 1.0
vertex 0.464888244867 -0.18406227231 1.0
vertex 0.4842915833 -0.124344944954 0.0
endloop
endfacet
facet normal 0.982287228107 -0.18738143146 0.0
outer loop
vertex 0.4842915833 -0.124344944954 1.0
vertex 0.4842915833 -0.124344944954 0.0
vertex 0.496057361364 -0.0626666173339 0.0
endloop
endfacet
facet normal 0.982287228107 -0.18738143146 0.0
outer loop
vertex 0.496057361364 -0.0626666173339 1.0
vertex 0.4842915833 -0.124344944954 1.0
vertex 0.496057361364 -0.0626666173339 0.0
endloop
endfacet
facet normal 0.99802672863 -0.0627903491259 0.0
outer loop
vertex 0.5 -1.22464685259e-16 1.0
vertex 0.496057361364 -0.0626666173339 0.0
vertex 0.5 -1.22464685259e-16 0.0
endloop
endfacet
facet normal 0.99802672863 -0.0627903491259 0.0
outer loop
vertex 0.5 -1.22464685259e-16 1.0
vertex 0.496057361364 -0.0626666173339 1.0
vertex 0.496057361364 -0.0626666173339 0.0
endloop
endfacet
facet normal 0.0 0.0 1.0
outer loop
vertex 0.318711996078 -0.385256618261 1.0
vertex 0.154508501291 -0.475528270006 1.0
vertex 0.212889641523 -0.452413529158 1.0
endloop
endfacet
facet normal 0.0 0.0 1.0
outer loop
vertex 0.318711996078 -0.385256618261 1.0
vertex 0.212889641523 -0.452413529158 1.0
vertex 0.267913401127 -0.422163963318 1.0
endloop
endfacet
facet normal 0.0 0.0 1.0
outer loop
vertex -0.36448431015 0.342273563147 1.0
vertex -0.404508501291 0.293892621994 1.0
vertex -0.438153326511 0.240876838565 1.0
endloop
endfacet
facet normal 0.0 0.0 1.0
outer loop
vertex 0.438153326511 -0.240876838565 1.0
vertex 0.318711996078 -0.385256618261 1.0
vertex 0.36448431015 -0.342273563147 1.0
endloop
endfacet
facet normal 0.0 0.0 1.0
outer loop
vertex 0.438153326511 -0.240876838565 1.0
vertex 0.36448431015 -0.342273563147 1.0
vertex 0.404508501291 -0.293892621994 1.0
endloop
endfacet
facet normal 0.0 0.0 1.0
outer loop
vertex -0.212889641523 0.452413529158 1.0
vertex -0.267913401127 0.422163963318 1.0
vertex -0.318711996078 0.385256618261 1.0
endloop
endfacet
facet normal 0.0 0.0 1.0
outer loop
vertex 0.496057361364 -0.0626666173339 1.0
vertex 0.438153326511 -0.240876838565 1.0
vertex 0.464888244867 -0.18406227231 1.0
endloop
endfacet
facet normal 0.0 0.0 1.0
outer loop
vertex 0.496057361364 -0.0626666173339 1.0
vertex 0.464888244867 -0.18406227231 1.0
vertex 0.4842915833 -0.124344944954 1.0
endloop
endfacet
facet normal 0.0 0.0 1.0
outer loop
vertex 0.5 -1.22464685259e-16 1.0
vertex 0.438153326511 -0.240876838565 1.0
vertex 0.496057361364 -0.0626666173339 1.0
endloop
endfacet
facet normal 0.0 0.0 1.0
outer loop
vertex 0.4842915833 0.124344944954 1.0
vertex 0.5 -1.22464685259e-16 1.0
vertex 0.496057361364 0.0626666173339 1.0
endloop
endfacet
facet normal 0.0 0.0 1.0
outer loop
vertex 0.212889641523 0.452413529158 1.0
vertex 0.154508501291 0.475528270006 1.0
vertex 0.0936906561255 0.491143614054 1.0
endloop
endfacet
facet normal 0.0 0.0 1.0
outer loop
vertex 0.438153326511 0.240876838565 1.0
vertex 0.4842915833 0.124344944954 1.0
vertex 0.464888244867 0.18406227231 1.0
endloop
endfacet
facet normal 0.0 0.0 1.0
outer loop
vertex 0.438153326511 0.240876838565 1.0
vertex 0.5 -1.22464685259e-16 1.0
vertex 0.4842915833 0.124344944954 1.0
endloop
endfacet
facet normal 0.0 0.0 1.0
outer loop
vertex 0.36448431015 0.342273563147 1.0
vertex 0.438153326511 0.240876838565 1.0
vertex 0.404508501291 0.293892621994 1.0
endloop
endfacet
facet normal 0.0 0.0 1.0
outer loop
vertex 0.36448431015 0.342273563147 1.0
vertex 0.318711996078 0.385256618261 1.0
vertex 0.267913401127 0.422163963318 1.0
endloop
endfacet
facet normal 0.0 0.0 1.0
outer loop
vertex 0.36448431015 0.342273563147 1.0
vertex 0.267913401127 0.422163963318 1.0
vertex 0.212889641523 0.452413529158 1.0
endloop
endfacet
facet normal 0.0 0.0 1.0
outer loop
vertex 0.36448431015 0.342273563147 1.0
vertex 0.438153326511 -0.240876838565 1.0
vertex 0.5 -1.22464685259e-16 1.0
endloop
endfacet
facet normal 0.0 0.0 1.0
outer loop
vertex 0.36448431015 0.342273563147 1.0
vertex 0.0936906561255 0.491143614054 1.0
vertex 0.0313952602446 0.499013364315 1.0
endloop
endfacet
facet normal 0.0 0.0 1.0
outer loop
vertex 0.36448431015 0.342273563147 1.0
vertex 0.318711996078 -0.385256618261 1.0
vertex 0.438153326511 -0.240876838565 1.0
endloop
endfacet
facet normal 0.0 0.0 1.0
outer loop
vertex 0.36448431015 0.342273563147 1.0
vertex 0.0313952602446 0.499013364315 1.0
vertex -0.0313952602446 0.499013364315 1.0
endloop
endfacet
facet normal 0.0 0.0 1.0
outer loop
vertex 0.36448431015 0.342273563147 1.0
vertex -0.0313952602446 0.499013364315 1.0
vertex -0.0936906561255 0.491143614054 1.0
endloop
endfacet
facet normal 0.0 0.0 1.0
outer loop
vertex 0.36448431015 0.342273563147 1.0
vertex -0.212889641523 0.452413529158 1.0
vertex -0.318711996078 0.385256618261 1.0
endloop
endfacet
facet normal 0.0 0.0 1.0
outer loop
vertex 0.36448431015 0.342273563147 1.0
vertex -0.0936906561255 0.491143614054 1.0
vertex -0.154508501291 0.475528270006 1.0
endloop
endfacet
facet normal 0.0 0.0 1.0
outer loop
vertex 0.36448431015 0.342273563147 1.0
vertex -0.154508501291 0.475528270006 1.0
vertex -0.212889641523 0.452413529158 1.0
endloop
endfacet
facet normal 0.0 0.0 1.0
outer loop
vertex 0.36448431015 0.342273563147 1.0
vertex -0.318711996078 0.385256618261 1.0
vertex -0.36448431015 0.342273563147 1.0
endloop
endfacet
facet normal 0.0 0.0 1.0
outer loop
vertex 0.36448431015 0.342273563147 1.0
vertex -0.438153326511 0.240876838565 1.0
vertex -0.464888244867 0.18406227231 1.0
endloop
endfacet
facet normal 0.0 0.0 1.0
outer loop
vertex 0.36448431015 0.342273563147 1.0
vertex -0.464888244867 0.18406227231 1.0
vertex -0.4842915833 0.124344944954 1.0
endloop
endfacet
facet normal 0.0 0.0 1.0
outer loop
vertex 0.36448431015 0.342273563147 1.0
vertex -0.4842915833 0.124344944954 1.0
vertex -0.496057361364 0.0626666173339 1.0
endloop
endfacet
facet normal 0.0 0.0 1.0
outer loop
vertex 0.36448431015 0.342273563147 1.0
vertex -0.496057361364 0.0626666173339 1.0
vertex -0.5 -6.04901485381e-16 1.0
endloop
endfacet
facet normal 0.0 0.0 1.0
outer loop
vertex 0.36448431015 0.342273563147 1.0
vertex -0.5 -6.04901485381e-16 1.0
vertex -0.496057361364 -0.0626666173339 1.0
endloop
endfacet
facet normal 0.0 0.0 1.0
outer loop
vertex 0.36448431015 0.342273563147 1.0
vertex -0.496057361364 -0.0626666173339 1.0
vertex -0.4842915833 -0.124344944954 1.0
endloop
endfacet
facet normal 0.0 0.0 1.0
outer loop
vertex 0.36448431015 0.342273563147 1.0
vertex -0.4842915833 -0.124344944954 1.0
vertex -0.464888244867 -0.18406227231 1.0
endloop
endfacet
facet normal 0.0 0.0 1.0
outer loop
vertex 0.36448431015 0.342273563147 1.0
vertex -0.464888244867 -0.18406227231 1.0
vertex -0.438153326511 -0.240876838565 1.0
endloop
endfacet
facet normal 0.0 0.0 1.0
outer loop
vertex 0.36448431015 0.342273563147 1.0
vertex -0.438153326511 -0.240876838565 1.0
vertex -0.404508501291 -0.293892621994 1.0
endloop
endfacet
facet normal 0.0 0.0 1.0
outer loop
vertex 0.36448431015 0.342273563147 1.0
vertex -0.404508501291 -0.293892621994 1.0
vertex -0.36448431015 -0.342273563147 1.0
endloop
endfacet
facet normal 0.0 0.0 1.0
outer loop
vertex 0.36448431015 0.342273563147 1.0
vertex -0.36448431015 -0.342273563147 1.0
vertex -0.318711996078 -0.385256618261 1.0
endloop
endfacet
facet normal 0.0 0.0 1.0
outer loop
vertex 0.36448431015 0.342273563147 1.0
vertex -0.318711996078 -0.385256618261 1.0
vertex -0.267913401127 -0.422163963318 1.0
endloop
endfacet
facet normal 0.0 0.0 1.0
outer loop
vertex 0.36448431015 0.342273563147 1.0
vertex -0.267913401127 -0.422163963318 1.0
vertex -0.212889641523 -0.452413529158 1.0
endloop
endfacet
facet normal 0.0 0.0 1.0
outer loop
vertex 0.36448431015 0.342273563147 1.0
vertex 0.5 -1.22464685259e-16 1.0
vertex 0.438153326511 0.240876838565 1.0
endloop
endfacet
facet normal 0.0 0.0 1.0
outer loop
vertex 0.36448431015 0.342273563147 1.0
vertex -0.212889641523 -0.452413529158 1.0
vertex -0.154508501291 -0.475528270006 1.0
endloop
endfacet
facet normal 0.0 0.0 1.0
outer loop
vertex 0.36448431015 0.342273563147 1.0
vertex -0.154508501291 -0.475528270006 1.0
vertex -0.0936906561255 -0.491143614054 1.0
endloop
endfacet
facet normal 0.0 0.0 1.0
outer loop
vertex 0.36448431015 0.342273563147 1.0
vertex -0.0936906561255 -0.491143614054 1.0
vertex -0.0313952602446 -0.499013364315 1.0
endloop
endfacet
facet normal 0.0 0.0 1.0
outer loop
vertex 0.36448431015 0.342273563147 1.0
vertex -0.0313952602446 -0.499013364315 1.0
vertex 0.0313952602446 -0.499013364315 1.0
endloop
endfacet
facet normal 0.0 0.0 1.0
outer loop
vertex 0.36448431015 0.342273563147 1.0
vertex 0.0313952602446 -0.499013364315 1.0
vertex 0.0936906561255 -0.491143614054 1.0
endloop
endfacet
facet normal 0.0 0.0 1.0
outer loop
vertex 0.36448431015 0.342273563147 1.0
vertex 0.0936906561255 -0.491143614054 1.0
vertex 0.154508501291 -0.475528270006 1.0
endloop
endfacet
facet normal 0.0 0.0 1.0
outer loop
vertex 0.36448431015 0.342273563147 1.0
vertex 0.154508501291 -0.475528270006 1.0
vertex 0.318711996078 -0.385256618261 1.0
endloop
endfacet
facet normal 0.0 0.0 1.0
outer loop
vertex 0.36448431015 0.342273563147 1.0
vertex 0.212889641523 0.452413529158 1.0
vertex 0.0936906561255 0.491143614054 1.0
endloop
endfacet
facet normal 0.0 0.0 1.0
outer loop
vertex 0.36448431015 0.342273563147 1.0
vertex -0.36448431015 0.342273563147 1.0
vertex -0.438153326511 0.240876838565 1.0
endloop
endfacet
facet normal 0.0 0.0 -1.0
outer loop
vertex 0.154508501291 -0.475528270006 0.0
vertex 0.318711996078 -0.385256618261 0.0
vertex 0.212889641523 -0.452413529158 0.0
endloop
endfacet
facet normal 0.0 0.0 -1.0
outer loop
vertex 0.212889641523 -0.452413529158 0.0
vertex 0.318711996078 -0.385256618261 0.0
vertex 0.267913401127 -0.422163963318 0.0
endloop
endfacet
facet normal 0.0 -0.0 -1.0
outer loop
vertex -0.404508501291 0.293892621994 0.0
vertex -0.36448431015 0.342273563147 0.0
vertex -0.438153326511 0.240876838565 0.0
endloop
endfacet
facet normal 0.0 0.0 -1.0
outer loop
vertex 0.318711996078 -0.385256618261 0.0
vertex 0.438153326511 -0.240876838565 0.0
vertex 0.36448431015 -0.342273563147 0.0
endloop
endfacet
facet normal 0.0 0.0 -1.0
outer loop
vertex 0.36448431015 -0.342273563147 0.0
vertex 0.438153326511 -0.240876838565 0.0
vertex 0.404508501291 -0.293892621994 0.0
endloop
endfacet
facet normal 0.0 -0.0 -1.0
outer loop
vertex -0.267913401127 0.422163963318 0.0
vertex -0.212889641523 0.452413529158 0.0
vertex -0.318711996078 0.385256618261 0.0
endloop
endfacet
facet normal 0.0 0.0 -1.0
outer loop
vertex 0.438153326511 -0.240876838565 0.0
vertex 0.496057361364 -0.0626666173339 0.0
vertex 0.464888244867 -0.18406227231 0.0
endloop
endfacet
facet normal 0.0 0.0 -1.0
outer loop
vertex 0.464888244867 -0.18406227231 0.0
vertex 0.496057361364 -0.0626666173339 0.0
vertex 0.4842915833 -0.124344944954 0.0
endloop
endfacet
facet normal 0.0 0.0 -1.0
outer loop
vertex 0.438153326511 -0.240876838565 0.0
vertex 0.5 -1.22464685259e-16 0.0
vertex 0.496057361364 -0.0626666173339 0.0
endloop
endfacet
facet normal 0.0 0.0 -1.0
outer loop
vertex 0.5 -1.22464685259e-16 0.0
vertex 0.4842915833 0.124344944954 0.0
vertex 0.496057361364 0.0626666173339 0.0
endloop
endfacet
facet normal -0.0 -0.0 -1.0
outer loop
vertex 0.154508501291 0.475528270006 0.0
vertex 0.212889641523 0.452413529158 0.0
vertex 0.0936906561255 0.491143614054 0.0
endloop
endfacet
facet normal 0.0 0.0 -1.0
outer loop
vertex 0.4842915833 0.124344944954 0.0
vertex 0.438153326511 0.240876838565 0.0
vertex 0.464888244867 0.18406227231 0.0
endloop
endfacet
facet normal 0.0 0.0 -1.0
outer loop
vertex 0.5 -1.22464685259e-16 0.0
vertex 0.438153326511 0.240876838565 0.0
vertex 0.4842915833 0.124344944954 0.0
endloop
endfacet
facet normal 0.0 0.0 -1.0
outer loop
vertex 0.438153326511 0.240876838565 0.0
vertex 0.36448431015 0.342273563147 0.0
vertex 0.404508501291 0.293892621994 0.0
endloop
endfacet
facet normal -0.0 -0.0 -1.0
outer loop
vertex 0.318711996078 0.385256618261 0.0
vertex 0.36448431015 0.342273563147 0.0
vertex 0.267913401127 0.422163963318 0.0
endloop
endfacet
facet normal -0.0 -0.0 -1.0
outer loop
vertex 0.267913401127 0.422163963318 0.0
vertex 0.36448431015 0.342273563147 0.0
vertex 0.212889641523 0.452413529158 0.0
endloop
endfacet
facet normal 0.0 0.0 -1.0
outer loop
vertex 0.438153326511 -0.240876838565 0.0
vertex 0.36448431015 0.342273563147 0.0
vertex 0.5 -1.22464685259e-16 0.0
endloop
endfacet
facet normal -0.0 -0.0 -1.0
outer loop
vertex 0.0936906561255 0.491143614054 0.0
vertex 0.36448431015 0.342273563147 0.0
vertex 0.0313952602446 0.499013364315 0.0
endloop
endfacet
facet normal 0.0 0.0 -1.0
outer loop
vertex 0.318711996078 -0.385256618261 0.0
vertex 0.36448431015 0.342273563147 0.0
vertex 0.438153326511 -0.240876838565 0.0
endloop
endfacet
facet normal -0.0 -0.0 -1.0
outer loop
vertex 0.0313952602446 0.499013364315 0.0
vertex 0.36448431015 0.342273563147 0.0
vertex -0.0313952602446 0.499013364315 0.0
endloop
endfacet
facet normal 0.0 -0.0 -1.0
outer loop
vertex -0.0313952602446 0.499013364315 0.0
vertex 0.36448431015 0.342273563147 0.0
vertex -0.0936906561255 0.491143614054 0.0
endloop
endfacet
facet normal 0.0 -0.0 -1.0
outer loop
vertex -0.212889641523 0.452413529158 0.0
vertex 0.36448431015 0.342273563147 0.0
vertex -0.318711996078 0.385256618261 0.0
endloop
endfacet
facet normal 0.0 -0.0 -1.0
outer loop
vertex -0.0936906561255 0.491143614054 0.0
vertex 0.36448431015 0.342273563147 0.0
vertex -0.154508501291 0.475528270006 0.0
endloop
endfacet
facet normal 0.0 -0.0 -1.0
outer loop
vertex -0.154508501291 0.475528270006 0.0
vertex 0.36448431015 0.342273563147 0.0
vertex -0.212889641523 0.452413529158 0.0
endloop
endfacet
facet normal 0.0 -0.0 -1.0
outer loop
vertex -0.318711996078 0.385256618261 0.0
vertex 0.36448431015 0.342273563147 0.0
vertex -0.36448431015 0.342273563147 0.0
endloop
endfacet
facet normal 0.0 -0.0 -1.0
outer loop
vertex -0.438153326511 0.240876838565 0.0
vertex 0.36448431015 0.342273563147 0.0
vertex -0.464888244867 0.18406227231 0.0
endloop
endfacet
facet normal 0.0 -0.0 -1.0
outer loop
vertex -0.464888244867 0.18406227231 0.0
vertex 0.36448431015 0.342273563147 0.0
vertex -0.4842915833 0.124344944954 0.0
endloop
endfacet
facet normal 0.0 -0.0 -1.0
outer loop
vertex -0.4842915833 0.124344944954 0.0
vertex 0.36448431015 0.342273563147 0.0
vertex -0.496057361364 0.0626666173339 0.0
endloop
endfacet
facet normal 0.0 -0.0 -1.0
outer loop
vertex -0.496057361364 0.0626666173339 0.0
vertex 0.36448431015 0.342273563147 0.0
vertex -0.5 -6.04901485381e-16 0.0
endloop
endfacet
facet normal 0.0 0.0 -1.0
outer loop
vertex -0.5 -6.04901485381e-16 0.0
vertex 0.36448431015 0.342273563147 0.0
vertex -0.496057361364 -0.0626666173339 0.0
endloop
endfacet
facet normal 0.0 0.0 -1.0
outer loop
vertex -0.496057361364 -0.0626666173339 0.0
vertex 0.36448431015 0.342273563147 0.0
vertex -0.4842915833 -0.124344944954 0.0
endloop
endfacet
facet normal 0.0 0.0 -1.0
outer loop
vertex -0.4842915833 -0.124344944954 0.0
vertex 0.36448431015 0.342273563147 0.0
vertex -0.464888244867 -0.18406227231 0.0
endloop
endfacet
facet normal 0.0 0.0 -1.0
outer loop
vertex -0.464888244867 -0.18406227231 0.0
vertex 0.36448431015 0.342273563147 0.0
vertex -0.438153326511 -0.240876838565 0.0
endloop
endfacet
facet normal 0.0 0.0 -1.0
outer loop
vertex -0.438153326511 -0.240876838565 0.0
vertex 0.36448431015 0.342273563147 0.0
vertex -0.404508501291 -0.293892621994 0.0
endloop
endfacet
facet normal 0.0 0.0 -1.0
outer loop
vertex -0.404508501291 -0.293892621994 0.0
vertex 0.36448431015 0.342273563147 0.0
vertex -0.36448431015 -0.342273563147 0.0
endloop
endfacet
facet normal 0.0 0.0 -1.0
outer loop
vertex -0.36448431015 -0.342273563147 0.0
vertex 0.36448431015 0.342273563147 0.0
vertex -0.318711996078 -0.385256618261 0.0
endloop
endfacet
facet normal 0.0 0.0 -1.0
outer loop
vertex -0.318711996078 -0.385256618261 0.0
vertex 0.36448431015 0.342273563147 0.0
vertex -0.267913401127 -0.422163963318 0.0
endloop
endfacet
facet normal 0.0 0.0 -1.0
outer loop
vertex -0.267913401127 -0.422163963318 0.0
vertex 0.36448431015 0.342273563147 0.0
vertex -0.212889641523 -0.452413529158 0.0
endloop
endfacet
facet normal 0.0 0.0 -1.0
outer loop
vertex 0.5 -1.22464685259e-16 0.0
vertex 0.36448431015 0.342273563147 0.0
vertex 0.438153326511 0.240876838565 0.0
endloop
endfacet
facet normal 0.0 0.0 -1.0
outer loop
vertex -0.212889641523 -0.452413529158 0.0
vertex 0.36448431015 0.342273563147 0.0
vertex -0.154508501291 -0.475528270006 0.0
endloop
endfacet
facet normal 0.0 0.0 -1.0
outer loop
vertex -0.154508501291 -0.475528270006 0.0
vertex 0.36448431015 0.342273563147 0.0
vertex -0.0936906561255 -0.491143614054 0.0
endloop
endfacet
facet normal 0.0 0.0 -1.0
outer loop
vertex -0.0936906561255 -0.491143614054 0.0
vertex 0.36448431015 0.342273563147 0.0
vertex -0.0313952602446 -0.499013364315 0.0
endloop
endfacet
facet normal 0.0 0.0 -1.0
outer loop
vertex -0.0313952602446 -0.499013364315 0.0
vertex 0.36448431015 0.342273563147 0.0
vertex 0.0313952602446 -0.499013364315 0.0
endloop
endfacet
facet normal 0.0 0.0 -1.0
outer loop
vertex 0.0313952602446 -0.499013364315 0.0
vertex 0.36448431015 0.342273563147 0.0
vertex 0.0936906561255 -0.491143614054 0.0
endloop
endfacet
facet normal 0.0 0.0 -1.0
outer loop
vertex 0.0936906561255 -0.491143614054 0.0
vertex 0.36448431015 0.342273563147 0.0
vertex 0.154508501291 -0.475528270006 0.0
endloop
endfacet
facet normal 0.0 0.0 -1.0
outer loop
vertex 0.154508501291 -0.475528270006 0.0
vertex 0.36448431015 0.342273563147 0.0
vertex 0.318711996078 -0.385256618261 0.0
endloop
endfacet
facet normal -0.0 -0.0 -1.0
outer loop
vertex 0.212889641523 0.452413529158 0.0
vertex 0.36448431015 0.342273563147 0.0
vertex 0.0936906561255 0.491143614054 0.0
endloop
endfacet
facet normal 0.0 -0.0 -1.0
outer loop
vertex -0.36448431015 0.342273563147 0.0
vertex 0.36448431015 0.342273563147 0.0
vertex -0.438153326511 0.240876838565 0.0
endloop
endfacet
